# File created by Blade
# Date/Time:  Tue Jan 27 19:23:26 2015
#---------------------------------------------------------
:version 1.10
:name HOM
:units
  mass 1.0
  length 1.000000
  angle deg
:documentation
     Acclaim Skeleton File
:root
   axis xyz
   order TX TY TZ RX RY RZ
   position 0.000000 0.000000 0.000000
   orientation 0 0 0
:bonedata
   begin
      id 1
      name Spine_dum
      direction 0.000000 1.000000 0.000000
      length 6.116652
      axis 0.0 0.0 0.0 xyz
   end
   begin
      id 2
      name LeftUpLeg_dum
      direction 1.000000 0.000000 0.000000
      length 4.711765
      axis 0.0 0.0 0.0 xyz
   end
   begin
      id 3
      name RightUpLeg_dum
      direction -1.000000 0.000000 0.000000
      length 4.711765
      axis 0.0 0.0 0.0 xyz
   end
   begin
      id 4
      name Spine
      direction 0.000000 1.000000 0.000000
      length 0.000000
      axis 0.0 0.0 0.0 xyz
      dof rx ry rz
   end
   begin
      id 5
      name Spine_dum1
      direction 0.000000 1.000000 0.000000
      length 15.225563
      axis 0.0 0.0 0.0 xyz
   end
   begin
      id 6
      name Spine_dum2
      direction 0.000000 1.000000 0.000000
      length 8.977654
      axis 0.0 0.0 0.0 xyz
   end
   begin
      id 7
      name Spine_dum3
      direction 0.000000 1.000000 0.000000
      length 8.977654
      axis 0.0 0.0 0.0 xyz
   end
   begin
      id 8
      name Head
      direction 0.000000 1.000000 0.000000
      length 4.527550
      axis 0.0 0.0 0.0 xyz
      dof rx ry rz
   end
   begin
      id 9
      name LeftShoulder
      direction 1.000000 0.000000 0.000000
      length 7.110130
      axis 0.0 0.0 -90.0 xyz
      dof rx ry rz
   end
   begin
      id 10
      name LeftArm
      direction 1.000000 0.000000 0.000000
      length 10.398341
      axis 0.0 0.0 -90.0 xyz
      dof rx ry rz
   end
   begin
      id 11
      name LeftForeArm
      direction 1.000000 0.000000 0.000000
      length 8.888997
      axis 0.0 0.0 -90.0 xyz
      dof ry rz rx
   end
   begin
      id 12
      name LeftHand
      direction 0.000000 0.000000 0.000000
      length 0.000000
      axis 0.0 0.0 -90.0 xyz
      dof rx ry rz
   end
   begin
      id 13
      name LeftHand_dum1
      direction 0.000000 0.000000 0.000000
      length 0.000000
      axis 0.0 0.0 -90.0 xyz
   end
   begin
      id 14
      name LeftHand_dum2
      direction 1.000000 0.000000 0.000000
      length 3.937000
      axis 0.0 0.0 -90.0 xyz
   end
   begin
      id 15
      name LeftHandThumb1
      direction 0.000000 0.000000 1.000000
      length 3.937000
      axis 0.0 0.0 -90.0 xyz
      dof rx rz ry
   end
   begin
      id 16
      name RightShoulder
      direction -1.000000 0.000000 0.000000
      length 7.110130
      axis 0.0 0.0 90.0 xyz
      dof rx ry rz
   end
   begin
      id 17
      name RightArm
      direction -1.000000 0.000000 0.000000
      length 10.398341
      axis 0.0 0.0 90.0 xyz
      dof rx ry rz
   end
   begin
      id 18
      name RightForeArm
      direction -1.000000 0.000000 0.000000
      length 8.888997
      axis 0.0 0.0 90.0 xyz
      dof ry rz rx
   end
   begin
      id 19
      name RightHand
      direction 0.000000 0.000000 0.000000
      length 0.000000
      axis 0.0 0.0 90.0 xyz
      dof rx ry rz
   end
   begin
      id 20
      name RightHand_dum1
      direction 0.000000 0.000000 0.000000
      length 0.000000
      axis 0.0 0.0 90.0 xyz
   end
   begin
      id 21
      name RightHand_dum2
      direction -1.000000 0.000000 0.000000
      length 3.937000
      axis 0.0 0.0 90.0 xyz
   end
   begin
      id 22
      name RightHandThumb1
      direction 0.000000 0.000000 1.000000
      length 3.937000
      axis 0.0 0.0 90.0 xyz
      dof rx rz ry
   end
   begin
      id 23
      name LeftUpLeg
      direction 0.000000 -1.000000 0.000000
      length 15.510451
      axis 0.0 0.0 0.0 xyz
      dof rx ry rz
   end
   begin
      id 24
      name LeftLeg
      direction 0.000000 -1.000000 0.000000
      length 14.858061
      axis 0.0 0.0 0.0 xyz
      dof rx ry rz
   end
   begin
      id 25
      name LeftFoot
      direction 0.000000 -0.258819 0.965926
      length 5.128852
      axis 15.0 0.0 0.0 xyz
      dof rx ry rz
   end
   begin
      id 26
      name LeftToeBase
      direction 0.000000 0.000000 1.000000
      length 2.952750
      axis 0.0 0.0 0.0 xyz
      dof rx ry rz
   end
   begin
      id 27
      name RightUpLeg
      direction 0.000000 -1.000000 0.000000
      length 15.510451
      axis 0.0 0.0 0.0 xyz
      dof rx ry rz
   end
   begin
      id 28
      name RightLeg
      direction 0.000000 -1.000000 0.000000
      length 14.858061
      axis 0.0 0.0 0.0 xyz
      dof rx ry rz
   end
   begin
      id 29
      name RightFoot
      direction 0.000000 -0.258819 0.965926
      length 5.128852
      axis 15.0 0.0 0.0 xyz
      dof rx ry rz
   end
   begin
      id 30
      name RightToeBase
      direction 0.000000 0.000000 1.000000
      length 2.952750
      axis 0.0 0.0 0.0 xyz
      dof rx ry rz
   end
:hierarchy
   begin
      root Spine_dum LeftUpLeg_dum RightUpLeg_dum
      Spine_dum Spine
      LeftUpLeg_dum LeftUpLeg
      RightUpLeg_dum RightUpLeg
      Spine Spine_dum1 Spine_dum2 Spine_dum3
      Spine_dum1 Head
      Spine_dum2 LeftShoulder
      Spine_dum3 RightShoulder
      LeftShoulder LeftArm
      LeftArm LeftForeArm
      LeftForeArm LeftHand
      LeftHand LeftHand_dum1 LeftHand_dum2
      LeftHand_dum1 LeftHandThumb1
      RightShoulder RightArm
      RightArm RightForeArm
      RightForeArm RightHand
      RightHand RightHand_dum1 RightHand_dum2
      RightHand_dum1 RightHandThumb1
      LeftUpLeg LeftLeg
      LeftLeg LeftFoot
      LeftFoot LeftToeBase
      RightUpLeg RightLeg
      RightLeg RightFoot
      RightFoot RightToeBase
   end

# File created by Blade
# Date/Time:  Tue Jan 27 19:23:16 2015
# Frame Rate: 120.000 fps
#------------------------------------------------------
:FULLY-SPECIFIED
:DEGREES
548
root 4.604191 32.288946 0.450480 -3.104783 25.087310 3.410670
Spine -0.417392 28.969799 -0.891904
Head 8.328259 -39.505656 -1.076997
LeftShoulder -3.435170 -9.464025 23.639782
LeftArm -4.540934 45.713570 -103.679925
LeftForeArm 3.906729 -0.000000 13.335860
LeftHand 10.239864 -0.000000 -8.082618
LeftHandThumb1 -26.253704 0.000000 33.147579
RightShoulder 0.038994 26.715311 -44.890633
RightArm 54.646397 2.839032 123.872483
RightForeArm 32.403386 -0.000000 108.943823
RightHand 25.373502 -0.000000 -14.118036
RightHandThumb1 -24.326973 -0.000000 -32.862282
LeftUpLeg 7.244603 -15.122742 -4.182282
LeftLeg 3.084341 -0.000000 -0.000000
LeftFoot -13.031911 7.567281 -21.230153
LeftToeBase 17.281624 -0.000000 -0.000000
RightUpLeg 15.285123 -23.428001 -4.000344
RightLeg -2.213064 -0.000000 0.000000
RightFoot -17.279488 -20.606589 18.979207
RightToeBase 9.826675 -0.000000 -0.000000
549
root 4.607351 32.288997 0.448695 -3.115817 25.122678 3.414310
Spine -0.412775 28.954924 -0.890324
Head 8.366707 -39.522720 -1.095715
LeftShoulder -3.447081 -9.429172 23.642157
LeftArm -4.549014 45.717699 -103.653822
LeftForeArm 3.863379 0.000000 13.452175
LeftHand 10.246866 -0.000000 -8.019576
LeftHandThumb1 -26.253704 0.000000 33.147579
RightShoulder 0.043315 26.679771 -44.896000
RightArm 54.635837 2.861207 123.825190
RightForeArm 32.367520 -0.000000 108.920898
RightHand 25.401175 -0.000000 -14.115783
RightHandThumb1 -24.326973 -0.000000 -32.862282
LeftUpLeg 7.247397 -15.125088 -4.191369
LeftLeg 3.094457 -0.000000 -0.000000
LeftFoot -13.013050 7.546953 -21.192693
LeftToeBase 17.251301 -0.000000 -0.000000
RightUpLeg 15.288996 -23.413588 -4.006154
RightLeg -2.189210 -0.000000 0.000000
RightFoot -17.305600 -20.656220 18.993995
RightToeBase 9.818808 -0.000000 -0.000000
550
root 4.609900 32.288749 0.446699 -3.125518 25.158099 3.414260
Spine -0.412915 28.939272 -0.897749
Head 8.423022 -39.457660 -1.130476
LeftShoulder -3.466032 -9.390296 23.658826
LeftArm -4.547084 45.732518 -103.630858
LeftForeArm 3.802582 -0.000000 13.563949
LeftHand 10.271250 0.000000 -8.035048
LeftHandThumb1 -26.253704 0.000000 33.147579
RightShoulder 0.039880 26.654241 -44.895288
RightArm 54.611625 2.893750 123.785151
RightForeArm 32.329278 -0.000000 108.901709
RightHand 25.452674 -0.000000 -14.092362
RightHandThumb1 -24.326973 -0.000000 -32.862282
LeftUpLeg 7.248606 -15.140534 -4.199010
LeftLeg 3.112666 -0.000000 -0.000000
LeftFoot -12.982033 7.519211 -21.106630
LeftToeBase 17.162950 -0.000000 -0.000000
RightUpLeg 15.293532 -23.400864 -4.007619
RightLeg -2.170481 -0.000000 0.000000
RightFoot -17.331294 -20.684375 19.025014
RightToeBase 9.841021 -0.000000 -0.000000
551
root 4.614974 32.289017 0.446306 -3.131200 25.174639 3.418721
Spine -0.425818 28.941706 -0.903312
Head 8.488417 -39.433438 -1.172526
LeftShoulder -3.478562 -9.367148 23.670729
LeftArm -4.581985 45.747804 -103.636325
LeftForeArm 3.758403 0.000000 13.657615
LeftHand 10.265551 0.000000 -8.023680
LeftHandThumb1 -26.253704 0.000000 33.147579
RightShoulder 0.038042 26.658250 -44.893344
RightArm 54.551057 2.933325 123.761047
RightForeArm 32.288206 -0.000000 108.868899
RightHand 25.498502 -0.000000 -14.010663
RightHandThumb1 -24.326973 -0.000000 -32.862282
LeftUpLeg 7.259787 -15.139646 -4.210734
LeftLeg 3.099877 -0.000000 -0.000000
LeftFoot -13.021247 7.505141 -21.233815
LeftToeBase 17.348605 -0.000000 -0.000000
RightUpLeg 15.308269 -23.374698 -4.017433
RightLeg -2.175367 -0.000000 0.000000
RightFoot -17.340394 -20.726670 19.030411
RightToeBase 9.814464 -0.000000 -0.000000
552
root 4.617697 32.289282 0.443577 -3.137717 25.197851 3.416604
Spine -0.425098 28.941400 -0.898742
Head 8.522648 -39.414645 -1.195047
LeftShoulder -3.479196 -9.352325 23.672437
LeftArm -4.608628 45.760150 -103.630503
LeftForeArm 3.755826 -0.000000 13.745073
LeftHand 10.271110 0.000000 -8.052087
LeftHandThumb1 -26.253704 0.000000 33.147579
RightShoulder 0.035008 26.642186 -44.886476
RightArm 54.516946 2.951989 123.720484
RightForeArm 32.248746 -0.000000 108.844190
RightHand 25.523091 0.000000 -13.993124
RightHandThumb1 -24.326973 -0.000000 -32.862282
LeftUpLeg 7.253745 -15.130993 -4.212560
LeftLeg 3.112095 -0.000000 -0.000000
LeftFoot -12.992234 7.500177 -21.167455
LeftToeBase 17.238796 -0.000000 -0.000000
RightUpLeg 15.308649 -23.388689 -4.025188
RightLeg -2.158856 -0.000000 0.000000
RightFoot -17.352872 -20.726745 19.043682
RightToeBase 9.842450 -0.000000 -0.000000
553
root 4.620626 32.289540 0.441146 -3.142789 25.217890 3.418282
Spine -0.424464 28.928579 -0.901444
Head 8.551076 -39.394943 -1.209653
LeftShoulder -3.498213 -9.325821 23.680826
LeftArm -4.611841 45.774948 -103.621506
LeftForeArm 3.757619 -0.000000 13.798596
LeftHand 10.290854 -0.000000 -8.063004
LeftHandThumb1 -26.253704 0.000000 33.147579
RightShoulder 0.046020 26.597327 -44.869778
RightArm 54.517028 2.955893 123.684895
RightForeArm 32.245611 -0.000000 108.816616
RightHand 25.564357 -0.000000 -13.899719
RightHandThumb1 -24.326973 -0.000000 -32.862282
LeftUpLeg 7.250873 -15.151946 -4.222883
LeftLeg 3.132048 -0.000000 -0.000000
LeftFoot -12.965575 7.486659 -21.088912
LeftToeBase 17.095273 -0.000000 -0.000000
RightUpLeg 15.315013 -23.389567 -4.032852
RightLeg -2.156216 -0.000000 0.000000
RightFoot -17.343880 -20.742010 19.047279
RightToeBase 9.826619 -0.000000 -0.000000
554
root 4.623586 32.289984 0.438781 -3.144932 25.239025 3.418290
Spine -0.428928 28.919152 -0.903548
Head 8.578132 -39.363160 -1.219520
LeftShoulder -3.510530 -9.314736 23.685518
LeftArm -4.624439 45.807343 -103.626249
LeftForeArm 3.757781 -0.000000 13.823341
LeftHand 10.296544 0.000000 -8.119822
LeftHandThumb1 -26.253704 0.000000 33.147579
RightShoulder 0.057862 26.585713 -44.848475
RightArm 54.491333 2.980840 123.633193
RightForeArm 32.322879 -0.000000 108.796702
RightHand 25.683365 0.000000 -14.103551
RightHandThumb1 -24.326973 -0.000000 -32.862282
LeftUpLeg 7.247554 -15.166233 -4.230223
LeftLeg 3.135063 -0.000000 -0.000000
LeftFoot -12.960898 7.488198 -21.085604
LeftToeBase 17.103904 -0.000000 -0.000000
RightUpLeg 15.313143 -23.392778 -4.038379
RightLeg -2.145134 -0.000000 0.000000
RightFoot -17.372765 -20.750657 19.086240
RightToeBase 9.850764 -0.000000 -0.000000
555
root 4.626034 32.290429 0.435863 -3.143679 25.249077 3.423394
Spine -0.431987 28.924898 -0.910932
Head 8.595800 -39.355452 -1.224734
LeftShoulder -3.516122 -9.314232 23.689809
LeftArm -4.646685 45.841424 -103.637616
LeftForeArm 3.763911 -0.000000 13.846369
LeftHand 10.254823 -0.000000 -8.137830
LeftHandThumb1 -26.253704 0.000000 33.147579
RightShoulder 0.064282 26.577429 -44.829021
RightArm 54.459093 2.999091 123.563398
RightForeArm 32.272542 0.000000 108.760859
RightHand 25.603981 -0.000000 -13.859678
RightHandThumb1 -24.326973 -0.000000 -32.862282
LeftUpLeg 7.242606 -15.169347 -4.240531
LeftLeg 3.139016 -0.000000 -0.000000
LeftFoot -13.005510 7.476009 -21.259150
LeftToeBase 17.252171 -0.000000 -0.000000
RightUpLeg 15.311299 -23.393268 -4.046626
RightLeg -2.142962 -0.000000 0.000000
RightFoot -17.366259 -20.758594 19.079153
RightToeBase 9.836398 -0.000000 -0.000000
556
root 4.628170 32.290418 0.433410 -3.148015 25.253441 3.421596
Spine -0.431206 28.942107 -0.909037
Head 8.609938 -39.346292 -1.226435
LeftShoulder -3.519148 -9.302959 23.693888
LeftArm -4.642546 45.883798 -103.638710
LeftForeArm 3.797322 -0.000000 13.845867
LeftHand 10.251380 -0.000000 -8.157975
LeftHandThumb1 -26.253704 0.000000 33.147579
RightShoulder 0.056956 26.523988 -44.815972
RightArm 54.461073 2.995582 123.496151
RightForeArm 32.328957 -0.000000 108.720419
RightHand 25.587437 -0.000000 -13.799493
RightHandThumb1 -24.326973 -0.000000 -32.862282
LeftUpLeg 7.244559 -15.171825 -4.240376
LeftLeg 3.135376 -0.000000 -0.000000
LeftFoot -12.950662 7.463129 -21.125274
LeftToeBase 17.168051 -0.000000 -0.000000
RightUpLeg 15.318695 -23.409149 -4.056978
RightLeg -2.149469 -0.000000 0.000000
RightFoot -17.369407 -20.734488 19.118677
RightToeBase 9.828546 -0.000000 -0.000000
557
root 4.630213 32.290661 0.430853 -3.149170 25.251292 3.422175
Spine -0.427681 28.961995 -0.911214
Head 8.596048 -39.340839 -1.211121
LeftShoulder -3.526620 -9.311557 23.696097
LeftArm -4.658965 45.948915 -103.655517
LeftForeArm 3.781362 -0.000000 13.823352
LeftHand 10.241146 -0.000000 -8.190579
LeftHandThumb1 -26.253704 0.000000 33.147579
RightShoulder 0.044909 26.468476 -44.800956
RightArm 54.468164 2.983305 123.432355
RightForeArm 32.309582 -0.000000 108.678355
RightHand 25.586569 -0.000000 -13.766071
RightHandThumb1 -24.326973 -0.000000 -32.862282
LeftUpLeg 7.248138 -15.177095 -4.245362
LeftLeg 3.114530 -0.000000 -0.000000
LeftFoot -12.966526 7.481048 -21.188540
LeftToeBase 17.308989 -0.000000 -0.000000
RightUpLeg 15.321637 -23.416937 -4.064545
RightLeg -2.158249 -0.000000 0.000000
RightFoot -17.360928 -20.733013 19.107095
RightToeBase 9.855788 -0.000000 -0.000000
558
root 4.632159 32.290486 0.427017 -3.144643 25.257905 3.425858
Spine -0.428963 28.969100 -0.917246
Head 8.581594 -39.340019 -1.194009
LeftShoulder -3.520079 -9.301070 23.696308
LeftArm -4.652890 45.970571 -103.661214
LeftForeArm 3.809250 -0.000000 13.786566
LeftHand 10.272117 -0.000000 -8.186472
LeftHandThumb1 -26.253704 0.000000 33.147579
RightShoulder 0.048387 26.439152 -44.782439
RightArm 54.462913 2.996866 123.365904
RightForeArm 32.292197 -0.000000 108.634163
RightHand 25.601507 0.000000 -13.728151
RightHandThumb1 -24.326973 -0.000000 -32.862282
LeftUpLeg 7.233036 -15.185999 -4.255006
LeftLeg 3.138611 -0.000000 -0.000000
LeftFoot -12.953056 7.477416 -21.117548
LeftToeBase 17.139635 -0.000000 -0.000000
RightUpLeg 15.316856 -23.402305 -4.067367
RightLeg -2.163970 -0.000000 0.000000
RightFoot -17.369764 -20.744085 19.124696
RightToeBase 9.807560 -0.000000 -0.000000
559
root 4.633778 32.290444 0.423804 -3.139642 25.256448 3.424599
Spine -0.430869 28.977088 -0.918176
Head 8.564213 -39.311585 -1.178276
LeftShoulder -3.525138 -9.297536 23.696972
LeftArm -4.664462 46.005259 -103.681281
LeftForeArm 3.828611 0.000000 13.748193
LeftHand 10.251241 -0.000000 -8.190157
LeftHandThumb1 -26.253704 0.000000 33.147579
RightShoulder 0.051780 26.406496 -44.762044
RightArm 54.468092 2.991831 123.288593
RightForeArm 32.116427 -0.000000 108.605068
RightHand 25.735281 -0.000000 -14.470216
RightHandThumb1 -24.326973 -0.000000 -32.862282
LeftUpLeg 7.222376 -15.185296 -4.254335
LeftLeg 3.139823 -0.000000 -0.000000
LeftFoot -12.939867 7.456698 -21.158100
LeftToeBase 17.133687 -0.000000 -0.000000
RightUpLeg 15.310184 -23.423086 -4.072207
RightLeg -2.167916 -0.000000 0.000000
RightFoot -17.357401 -20.727669 19.127687
RightToeBase 9.852983 -0.000000 -0.000000
